<svg width="64" height="64" xmlns="http://www.w3.org/2000/svg">

 <g>
  <title>background</title>
  <rect fill="none" id="canvas_background" height="402" width="582" y="-1" x="-1"/>
 </g>
 <g>
  <title>Layer 1</title>
  <path fill="#ffffff" id="svg_2" d="m56,32l-17,0l-11.4,-15.2c-0.378,-0.504 -0.971,-0.8 -1.6,-0.8l-4,0c-0.616,0 -1.197,0.284 -1.576,0.769c-0.379,0.485 -0.514,1.119 -0.364,1.716l3.378,13.515l-11.876,0l-1.622,-6.485c-0.121,-0.483 -0.417,-0.903 -0.831,-1.179l-6,-4c-0.613,-0.409 -1.403,-0.447 -2.053,-0.099s-1.056,1.025 -1.056,1.763l0,20c0,3.309 2.691,6 6,6l17.438,0l-3.378,13.515c-0.149,0.597 -0.015,1.23 0.364,1.716c0.379,0.485 0.96,0.769 1.576,0.769l4,0c0.629,0 1.222,-0.296 1.6,-0.8l11.4,-15.2l19,0c3.309,0 6,-2.691 6,-6l0,-2c0,-4.411 -3.589,-8 -8,-8zm-31.438,-12l0.438,0l9,12l-6.438,0l-3,-12zm0.438,40l-0.438,0l3,-12l6.438,0l-9,12zm35,-18c0,1.103 -0.897,2 -2,2l-52,0c-1.103,0 -2,-0.897 -2,-2l0,-16.263l2.247,1.499l1.813,7.25c0.222,0.889 1.022,1.514 1.94,1.514l46,0c2.206,0 4,1.794 4,4l0,2z"/>
 </g>
</svg>